<?xml version="1.0" encoding="UTF-8"?>
<svg width="200px" height="200px" viewBox="0 0 200 200" version="1.1" xmlns="http://www.w3.org/2000/svg" xmlns:xlink="http://www.w3.org/1999/xlink">
    <!-- Generator: Sketch 46.2 (44496) - http://www.bohemiancoding.com/sketch -->
    <title>Artboard 3 Copy</title>
    <desc>Created with Sketch.</desc>
    <defs>
        <radialGradient cx="15.1191406%" cy="9.45703125%" fx="15.1191406%" fy="9.45703125%" r="120.807379%" id="radialGradient-1">
            <stop stop-color="#474C51" offset="0%"></stop>
            <stop stop-color="#728EA4" offset="100%"></stop>
        </radialGradient>
    </defs>
    <g id="Page-1" stroke="none" stroke-width="1" fill="none" fill-rule="evenodd">
        <g id="Artboard-3-Copy" fill-rule="nonzero" fill="url(#radialGradient-1)">
            <path d="M55.5,11 C30.9233286,11 11,30.9233286 11,55.5 L11,144.5 C11,169.076671 30.9233286,189 55.5,189 L144.5,189 C169.076671,189 189,169.076671 189,144.5 L189,55.5 C189,30.9233286 169.076671,11 144.5,11 L55.5,11 Z M55.5555556,0 L144.444444,0 C175.126931,-5.63628126e-15 200,24.8730695 200,55.5555556 L200,144.444444 C200,175.126931 175.126931,200 144.444444,200 L55.5555556,200 C24.8730695,200 3.75752084e-15,175.126931 0,144.444444 L0,55.5555556 C-3.75752084e-15,24.8730695 24.8730695,5.63628126e-15 55.5555556,0 Z M73,120.389722 C72.9075903,122.638127 72.1683238,124.301922 70.7821782,125.381156 C69.3960327,126.460391 67.8712954,127 66.2079208,127 C64.5445461,127 63.0660131,126.505358 61.7722772,125.51606 C60.4785414,124.526762 59.6930707,122.997869 59.4158416,120.929336 L59,69.6659529 C59.4620485,67.7772925 60.2937234,66.3608184 61.4950495,65.4164882 C62.6963756,64.472158 64.1287046,64 65.7920792,64 C67.2706345,64 68.6567592,64.4271906 69.950495,65.2815846 C71.2442309,66.1359786 72.1221099,67.4625178 72.5841584,69.261242 L73,120.389722 Z M58,48.5675676 C58,46.4954851 58.7300812,44.7162236 60.1902655,43.2297297 C61.6504498,41.7432358 63.3982199,41 65.4336283,41 C67.5575327,41 69.3495502,41.7432358 70.8097345,43.2297297 C72.2699188,44.7162236 73,46.4954851 73,48.5675676 C73,50.63965 72.2699188,52.3963892 70.8097345,53.8378378 C69.3495502,55.2792865 67.5575327,56 65.4336283,56 C63.3982199,56 61.6504498,55.2792865 60.1902655,53.8378378 C58.7300812,52.3963892 58,50.63965 58,48.5675676 Z M89.270073,146.891227 C89.270073,144.99999 90.1784175,143.469011 91.9951338,142.298245 C93.8118501,141.127479 96.1735459,140.992392 99.080292,141.892982 C104.348769,145.315221 109.390081,147.026315 114.20438,147.026315 C119.382021,147.026315 123.083525,145.833052 125.309002,143.44649 C127.53448,141.059929 128.647202,137.570198 128.647202,132.977192 L128.647202,125.682456 L123.19708,127.438596 C121.017021,127.978949 119.200332,128.361694 117.746959,128.586841 C116.293586,128.811989 114.840234,128.924561 113.386861,128.924561 C109.29925,128.924561 105.552328,128.046499 102.145985,126.29035 C98.7396423,124.534201 95.8556485,122.237733 93.4939173,119.400877 C91.1321861,116.56402 89.2927884,113.366976 87.9756691,109.809649 C86.6585498,106.252321 86,102.627503 86,98.9350874 C86,96.863732 86.1816689,94.747379 86.5450122,92.5859647 C86.9083554,90.4245504 87.4987794,88.3081973 88.3163017,86.2368419 C89.3154957,83.7151919 90.7007211,81.3286661 92.4720195,79.0771929 C94.2433179,76.8257196 96.287093,74.8894817 98.6034063,73.268421 C100.91972,71.6473603 103.394958,70.3640398 106.029197,69.418421 C108.663436,68.4728023 111.388469,68 114.20438,68 C117.292797,68 120.085957,68.5178311 122.583942,69.5535088 C125.081927,70.5891864 127.511748,71.8725069 129.873479,73.4035087 C131.145181,71.6023301 132.916453,70.7017544 135.187348,70.7017544 C136.731557,70.7017544 138.139491,71.1295279 139.411192,71.9850877 C140.682894,72.8406475 141.545821,74.1689968 142,75.9701754 L142,132.571929 C142,137.345052 141.250616,141.465187 139.751825,144.932455 C138.253034,148.399724 135.36904,151.529225 131.099757,154.321052 C129.373876,155.401759 127.466353,156.369878 125.377129,157.225438 C123.287905,158.080998 121.198713,158.598829 119.109489,158.778946 C117.020265,159.049123 114.363358,159.071638 111.138686,158.84649 C107.914015,158.621343 104.7121,158.035969 101.532847,157.09035 C98.3535932,156.144731 95.5831424,154.861411 93.2214112,153.24035 C90.85968,151.619289 89.5425804,149.502936 89.270073,146.891227 Z M128,111.433028 C128,107.359613 127.97752,103.399408 127.932558,99.552294 C127.887597,95.7051801 127.865116,91.7449751 127.865116,87.6715604 C126.066658,86.0421945 124.155824,84.412853 122.132558,82.7834871 C120.109292,81.1541212 117.928694,80.2489315 115.590698,80.0678908 C111.903858,79.7963299 108.958926,80.3394437 106.755814,81.6972486 C104.552702,83.0550535 102.866673,84.7522842 101.697674,86.7889916 C100.528676,88.825699 99.7868233,90.930265 99.472093,93.1027529 C99.1573628,95.2752408 99,97.0403607 99,98.3981656 C99,101.294816 99.4046471,103.897236 100.213953,106.205505 C101.02326,108.513773 102.124799,110.459931 103.518605,112.044037 C104.91241,113.628143 106.553479,114.850149 108.44186,115.710092 C110.330242,116.570035 112.308517,117 114.376744,117 C118.513199,117 123.054239,115.144361 128,111.433028 Z" id="Rectangle-2"></path>
        </g>
    </g>
</svg>